<svg xmlns="http://www.w3.org/2000/svg" width="320" height="320" viewBox="0 0 320 320" fill="none">

<rect width="320" height="320" rx="30" fill="#3674B5"/>
<rect x="24.6569" y="160" width="192" height="192" rx="16" transform="rotate(-45 24.6569 160)" stroke="#00FFF0" stroke-width="8" stroke-linejoin="round"/>
<path d="M190.547 165.484C190.583 167.161 190.529 168.839 190.383 170.516C190.273 172.193 190.091 173.852 189.836 175.492C189.289 178.81 188.432 181.964 187.266 184.953C186.135 187.906 184.659 190.622 182.836 193.102C181.013 195.654 178.88 197.823 176.438 199.609C173.995 201.469 171.188 202.909 168.016 203.93C164.844 204.951 161.344 205.461 157.516 205.461C153.651 205.461 150.26 204.859 147.344 203.656C144.427 202.417 141.893 200.758 139.742 198.68C137.591 196.565 135.768 194.141 134.273 191.406C132.779 188.635 131.594 185.755 130.719 182.766C129.807 179.74 129.133 176.677 128.695 173.578C128.258 170.443 128.003 167.453 127.93 164.609C127.893 162.786 127.893 160.891 127.93 158.922C127.966 156.953 128.039 154.893 128.148 152.742C128.331 149.06 128.659 144.776 129.133 139.891C129.643 135.005 130.409 129.792 131.43 124.25L143.297 125.945C142.458 129.555 141.784 133.036 141.273 136.391C140.763 139.745 140.362 142.898 140.07 145.852C139.779 148.805 139.578 151.503 139.469 153.945C139.396 156.388 139.359 158.484 139.359 160.234C139.359 161.255 139.378 162.331 139.414 163.461C139.487 164.591 139.56 165.794 139.633 167.07C139.815 169.586 140.143 172.138 140.617 174.727C141.091 177.315 141.784 179.849 142.695 182.328C143.57 184.844 144.737 187.031 146.195 188.891C147.654 190.786 149.44 192.336 151.555 193.539C153.669 194.706 156.185 195.289 159.102 195.289C165.19 195.289 170.003 192.609 173.539 187.25C175.253 184.661 176.547 181.526 177.422 177.844C178.333 174.161 178.753 170.042 178.68 165.484C178.643 161.802 178.424 157.865 178.023 153.672C177.732 150.026 177.276 145.852 176.656 141.148C176.036 136.445 175.18 131.451 174.086 126.164L185.734 124.578C186.901 130.594 187.794 136.099 188.414 141.094C189.034 146.052 189.508 150.354 189.836 154C190.018 156.115 190.164 158.138 190.273 160.07C190.419 161.966 190.51 163.771 190.547 165.484Z" fill="white"/>
</svg>