<svg width="136" height="83" viewBox="0 0 136 83" fill="none" xmlns="http://www.w3.org/2000/svg">
<g id="Group 235">
<path id="Polygon 2" d="M37.9648 4.9502C39.8564 3.05865 42.8859 2.99925 44.8486 4.77246L45.0352 4.9502L78.0498 37.9648C79.9414 39.8564 80.0008 42.8859 78.2275 44.8486L78.0498 45.0352L45.0352 78.0498C43.1436 79.9414 40.1141 80.0008 38.1514 78.2275L37.9648 78.0498L4.9502 45.0352C3.05865 43.1436 2.99925 40.1141 4.77246 38.1514L4.9502 37.9648L37.9648 4.9502Z" stroke="#00FFF0" stroke-width="2"/>
<path id="Ulearn" d="M42.1562 45.2812C42.1667 45.7604 42.151 46.2396 42.1094 46.7188C42.0781 47.1979 42.026 47.6719 41.9531 48.1406C41.7969 49.0885 41.5521 49.9896 41.2188 50.8438C40.8958 51.6875 40.474 52.4635 39.9531 53.1719C39.4323 53.901 38.8229 54.5208 38.125 55.0312C37.4271 55.5625 36.625 55.974 35.7188 56.2656C34.8125 56.5573 33.8125 56.7031 32.7188 56.7031C31.6146 56.7031 30.6458 56.5312 29.8125 56.1875C28.9792 55.8333 28.2552 55.3594 27.6406 54.7656C27.026 54.1615 26.5052 53.4688 26.0781 52.6875C25.651 51.8958 25.3125 51.0729 25.0625 50.2188C24.8021 49.3542 24.6094 48.4792 24.4844 47.5938C24.3594 46.6979 24.2865 45.8438 24.2656 45.0312C24.2552 44.5104 24.2552 43.9688 24.2656 43.4062C24.276 42.8438 24.2969 42.2552 24.3281 41.6406C24.3802 40.5885 24.474 39.3646 24.6094 37.9688C24.7552 36.5729 24.974 35.0833 25.2656 33.5L28.6562 33.9844C28.4167 35.0156 28.224 36.0104 28.0781 36.9688C27.9323 37.9271 27.8177 38.8281 27.7344 39.6719C27.651 40.5156 27.5938 41.2865 27.5625 41.9844C27.5417 42.6823 27.5312 43.2812 27.5312 43.7812C27.5312 44.0729 27.5365 44.3802 27.5469 44.7031C27.5677 45.026 27.5885 45.3698 27.6094 45.7344C27.6615 46.4531 27.7552 47.1823 27.8906 47.9219C28.026 48.6615 28.224 49.3854 28.4844 50.0938C28.7344 50.8125 29.0677 51.4375 29.4844 51.9688C29.901 52.5104 30.4115 52.9531 31.0156 53.2969C31.6198 53.6302 32.3385 53.7969 33.1719 53.7969C34.9115 53.7969 36.2865 53.0312 37.2969 51.5C37.7865 50.7604 38.1562 49.8646 38.4062 48.8125C38.6667 47.7604 38.7865 46.5833 38.7656 45.2812C38.7552 44.2292 38.6927 43.1042 38.5781 41.9062C38.4948 40.8646 38.3646 39.6719 38.1875 38.3281C38.0104 36.9844 37.7656 35.5573 37.4531 34.0469L40.7812 33.5938C41.1146 35.3125 41.3698 36.8854 41.5469 38.3125C41.724 39.7292 41.8594 40.9583 41.9531 42C42.0052 42.6042 42.0469 43.1823 42.0781 43.7344C42.1198 44.276 42.1458 44.7917 42.1562 45.2812ZM54.4519 53.6562L54.0456 56.7656C53.306 56.7552 52.6498 56.6302 52.0769 56.3906C51.5144 56.151 51.0196 55.8385 50.5925 55.4531C50.155 55.0781 49.78 54.6458 49.4675 54.1562C49.1654 53.6667 48.9102 53.1719 48.7019 52.6719C48.2019 51.4844 47.8894 50.1406 47.7644 48.6406L48.1863 28.8281H51.4519L51.3113 33.9219C51.2904 34.6927 51.2696 35.4323 51.2488 36.1406C51.2279 36.8385 51.2071 37.5052 51.1863 38.1406C51.155 39.401 51.1238 40.5365 51.0925 41.5469C51.0717 42.5469 51.0508 43.4271 51.03 44.1875C50.9779 45.9896 50.9467 47.401 50.9363 48.4219C50.9467 49.3802 51.0873 50.2448 51.3581 51.0156C51.5873 51.724 51.9467 52.3385 52.4363 52.8594C52.9258 53.3698 53.5977 53.6354 54.4519 53.6562ZM65.6381 54.5625C66.7944 54.5625 67.8569 54.2188 68.8256 53.5312C69.7944 52.8333 70.4246 51.8646 70.7163 50.625L73.7319 51.2344C73.4402 52.1823 73.0288 53.0417 72.4975 53.8125C71.9663 54.5833 71.3465 55.2448 70.6381 55.7969C69.9298 56.349 69.1485 56.776 68.2944 57.0781C67.4506 57.3802 66.5652 57.5312 65.6381 57.5312C64.2631 57.5312 63.0444 57.3229 61.9819 56.9062C60.9194 56.4896 60.0235 55.901 59.2944 55.1406C57.8048 53.5885 57.06 51.474 57.06 48.7969C57.06 47.4948 57.2788 46.2812 57.7163 45.1562C58.1642 44.0208 58.7735 43.0365 59.5444 42.2031C60.3152 41.3698 61.2215 40.7135 62.2631 40.2344C63.3048 39.7552 64.4298 39.5156 65.6381 39.5156C66.7215 39.5156 67.7423 39.7292 68.7006 40.1562C69.659 40.5729 70.5079 41.151 71.2475 41.8906C71.9871 42.6406 72.5965 43.5208 73.0756 44.5312C73.5548 45.5417 73.8569 46.6354 73.9819 47.8125L60.4506 49.8281C60.5235 50.5677 60.7058 51.2344 60.9975 51.8281C61.2996 52.4115 61.6746 52.9062 62.1225 53.3125C63.0496 54.1458 64.2215 54.5625 65.6381 54.5625ZM60.5444 46.9375L69.9506 45.7969L69.8569 45.5C69.461 44.4688 68.9142 43.6615 68.2163 43.0781C67.5288 42.4948 66.6694 42.2031 65.6381 42.2031C65.2006 42.2031 64.7215 42.2812 64.2006 42.4375C63.6798 42.5833 63.1746 42.8385 62.685 43.2031C62.1954 43.5677 61.7527 44.0573 61.3569 44.6719C60.9715 45.276 60.7006 46.0312 60.5444 46.9375ZM93.6213 57.5L90.5588 56.9844L90.7775 54.7812C89.5067 55.5938 88.2567 56.1823 87.0275 56.5469C85.8088 56.9115 84.6681 57.0938 83.6056 57.0938C82.8556 57.0938 82.1265 56.9948 81.4181 56.7969C80.7202 56.6094 80.1056 56.3125 79.5744 55.9062C79.0327 55.5104 78.5952 55.0052 78.2619 54.3906C77.939 53.7656 77.7775 53.0312 77.7775 52.1875C77.7775 51.3438 77.9025 50.5885 78.1525 49.9219C78.4025 49.2552 78.7463 48.6667 79.1838 48.1562C79.6213 47.6458 80.1369 47.2083 80.7306 46.8438C81.3244 46.4792 81.965 46.1823 82.6525 45.9531C83.3296 45.724 84.0431 45.5573 84.7931 45.4531C85.5431 45.3385 86.2879 45.2812 87.0275 45.2812C87.715 45.2812 88.3556 45.3073 88.9494 45.3594C89.5431 45.4115 90.0692 45.4792 90.5275 45.5625C90.34 44.8229 90.0848 44.1302 89.7619 43.4844C89.4494 42.8385 89.0327 42.3177 88.5119 41.9219C88.0015 41.5156 87.34 41.3125 86.5275 41.3125C86.1213 41.3125 85.6577 41.375 85.1369 41.5C84.616 41.6146 84.0431 41.8281 83.4181 42.1406C82.7931 42.4531 82.1108 42.8854 81.3713 43.4375C80.6317 43.9792 79.84 44.6771 78.9963 45.5312L77.1056 43.2344C78.1056 42.2969 79.064 41.5312 79.9806 40.9375C80.8973 40.3438 81.7619 39.875 82.5744 39.5312C83.3765 39.1979 84.1213 38.9688 84.8088 38.8438C85.5067 38.7188 86.1317 38.6562 86.6838 38.6562C87.6525 38.6562 88.5067 38.8177 89.2463 39.1406C89.9963 39.4635 90.6577 39.9115 91.2306 40.4844C91.8035 41.0469 92.2827 41.7135 92.6681 42.4844C93.0431 43.224 93.3608 44.0469 93.6213 44.9531C93.8713 45.8385 94.0483 46.7552 94.1525 47.7031C94.2671 48.651 94.3244 49.5938 94.3244 50.5312C94.3244 51.5312 94.2671 52.6042 94.1525 53.75C94.0379 54.8958 93.8608 56.1458 93.6213 57.5ZM90.9963 51.2969C91.0171 50.776 91.0327 50.2604 91.0431 49.75C91.0535 49.2396 91.0275 48.7083 90.965 48.1562C90.4546 48 89.9181 47.875 89.3556 47.7812C88.7931 47.6875 88.2306 47.6406 87.6681 47.6406C86.7306 47.6406 85.8192 47.75 84.9338 47.9688C84.0588 48.1875 83.3035 48.5052 82.6681 48.9219C82.0327 49.3385 81.5535 49.849 81.2306 50.4531C80.9181 51.0573 80.8556 51.7448 81.0431 52.5156C81.189 53.1406 81.4702 53.5781 81.8869 53.8281C82.314 54.0781 82.8244 54.2031 83.4181 54.2031C84.189 54.2031 85.0535 54.0417 86.0119 53.7188C86.9702 53.3854 87.8921 52.9896 88.7775 52.5312C89.6733 52.0729 90.4129 51.6615 90.9963 51.2969ZM114.495 46.0469L111.417 47.2031C111.406 46.3177 111.281 45.599 111.042 45.0469C110.813 44.4948 110.505 44.0781 110.12 43.7969C109.755 43.526 109.344 43.401 108.886 43.4219C108.584 43.474 108.276 43.5938 107.964 43.7812C107.641 43.9792 107.302 44.2396 106.948 44.5625C106.604 44.8854 106.261 45.2448 105.917 45.6406C105.74 45.8385 105.568 46.0417 105.401 46.25C105.235 46.4583 105.068 46.6667 104.901 46.875C104.578 47.2917 104.271 47.7135 103.979 48.1406C103.688 48.5573 103.427 48.9375 103.198 49.2812C103.209 49.7083 103.219 50.1979 103.229 50.75C103.24 51.2917 103.25 51.8281 103.261 52.3594C103.281 52.8802 103.297 53.3229 103.308 53.6875C103.328 54.3438 103.349 54.9375 103.37 55.4688C103.391 55.9896 103.417 56.4115 103.448 56.7344L100.089 57.1562L99.7763 48.3906C99.7554 47.7969 99.7346 47.1615 99.7138 46.4844C99.6929 45.7969 99.6721 45.151 99.6513 44.5469C99.6304 43.9323 99.6148 43.4479 99.6044 43.0938C99.5627 41.625 99.5315 40.5208 99.5106 39.7812L103.073 39.7188C103.084 40.0417 103.089 40.3646 103.089 40.6875C103.089 41 103.094 41.3229 103.104 41.6562C103.104 41.9896 103.104 42.3125 103.104 42.625C103.104 42.9271 103.11 43.2135 103.12 43.4844C103.13 43.8073 103.136 44.1302 103.136 44.4531C103.136 44.7656 103.136 45.0729 103.136 45.375C103.438 44.8958 103.808 44.3698 104.245 43.7969C104.683 43.224 105.172 42.6823 105.714 42.1719C106.266 41.6615 106.865 41.2188 107.511 40.8438C108.156 40.4583 108.849 40.2188 109.589 40.125C110.401 40.0833 111.162 40.2604 111.87 40.6562C112.162 40.8229 112.448 41.0469 112.729 41.3281C113.021 41.599 113.292 41.9479 113.542 42.375C113.781 42.8125 113.985 43.3333 114.151 43.9375C114.318 44.5312 114.433 45.2344 114.495 46.0469ZM122.166 56.7344L118.806 57.1562L118.494 48.3906C118.473 47.7969 118.452 47.1615 118.431 46.4844C118.41 45.7969 118.39 45.151 118.369 44.5469C118.348 43.9323 118.332 43.4479 118.322 43.0938C118.28 41.625 118.249 40.5208 118.228 39.7812L121.791 39.7188L121.853 44.2188C122.197 43.625 122.588 43.0677 123.025 42.5469C123.463 42.0156 123.936 41.5469 124.447 41.1406C124.957 40.7344 125.499 40.4062 126.072 40.1562C126.655 39.9062 127.265 39.7604 127.9 39.7188C128.702 39.6667 129.395 39.7344 129.978 39.9219C130.561 40.1094 131.061 40.3698 131.478 40.7031C131.895 41.026 132.239 41.4167 132.509 41.875C132.791 42.3438 133.004 42.8125 133.15 43.2812C133.306 43.7604 133.416 44.2448 133.478 44.7344C133.551 45.2135 133.598 45.651 133.619 46.0469C133.681 47.8385 133.697 49.6406 133.666 51.4531C133.634 53.2656 133.598 55.1458 133.556 57.0938L130.353 56.9844C130.436 55.3073 130.509 53.6302 130.572 51.9531C130.645 50.276 130.64 48.5833 130.556 46.875C130.556 46.5104 130.515 46.0938 130.431 45.625C130.348 45.1458 130.197 44.6719 129.978 44.2031C129.822 43.8802 129.619 43.5938 129.369 43.3438C129.119 43.1042 128.811 42.9219 128.447 42.7969C128.093 42.6719 127.676 42.6458 127.197 42.7188C126.374 42.8438 125.541 43.4427 124.697 44.5156C123.864 45.5573 122.947 47.1354 121.947 49.25L122.056 53.25C122.067 53.75 122.077 54.1875 122.088 54.5625C122.098 54.9375 122.108 55.2552 122.119 55.5156C122.14 56.1198 122.155 56.526 122.166 56.7344Z" fill="white"/>
</g>
</svg>
